<?xml version="1.0" encoding="UTF-8"?>
<svg version="1.1" xmlns="http://www.w3.org/2000/svg" width="225" height="225">
<path d="M0,0 L225,0 L225,225 L0,225 Z M144,49 L144,50 L142,50 L142,51 L140,51 L140,52 L139,52 L139,53 L138,53 L138,54 L136,54 L136,56 L134,56 L134,57 L133,57 L133,59 L132,59 L132,60 L131,60 L131,62 L130,62 L130,63 L129,63 L129,65 L128,65 L128,67 L127,67 L127,69 L126,69 L126,70 L125,70 L125,74 L124,74 L124,76 L123,76 L123,78 L122,78 L122,80 L121,80 L121,82 L120,82 L120,85 L119,85 L119,87 L118,87 L118,89 L117,89 L117,91 L116,91 L116,94 L115,94 L115,96 L114,96 L114,97 L113,97 L113,99 L112,99 L112,101 L111,101 L111,102 L110,102 L110,104 L109,104 L109,105 L108,105 L108,93 L107,93 L107,90 L106,90 L106,88 L105,88 L105,85 L104,85 L104,83 L103,83 L103,81 L102,81 L102,80 L101,80 L101,79 L100,79 L100,77 L98,77 L98,76 L97,76 L97,75 L96,75 L96,74 L95,74 L95,73 L93,73 L93,72 L90,72 L90,71 L88,71 L88,70 L77,70 L77,71 L72,71 L72,72 L69,72 L69,73 L67,73 L67,74 L64,74 L64,75 L63,75 L63,76 L61,76 L61,77 L59,77 L59,78 L57,78 L57,79 L56,79 L56,80 L55,80 L55,81 L53,81 L53,82 L52,82 L52,83 L51,83 L51,84 L50,84 L50,85 L49,85 L49,86 L48,86 L48,87 L47,87 L47,88 L46,88 L46,89 L45,89 L45,90 L44,90 L44,92 L43,92 L43,93 L42,93 L42,95 L41,95 L41,96 L40,96 L40,98 L39,98 L39,100 L38,100 L38,102 L37,102 L37,106 L36,106 L36,109 L35,109 L35,125 L36,125 L36,128 L37,128 L37,131 L38,131 L38,132 L39,132 L39,134 L40,134 L40,136 L41,136 L41,137 L42,137 L42,138 L43,138 L43,140 L45,140 L45,141 L46,141 L46,143 L47,143 L47,144 L49,144 L49,145 L50,145 L50,146 L52,146 L52,147 L54,147 L54,148 L55,148 L55,149 L57,149 L57,150 L60,150 L60,151 L62,151 L62,152 L64,152 L64,151 L63,151 L63,150 L62,150 L62,148 L61,148 L61,147 L60,147 L60,145 L59,145 L59,144 L58,144 L58,140 L57,140 L57,138 L56,138 L56,134 L55,134 L55,128 L54,128 L54,106 L55,106 L55,102 L56,102 L56,99 L57,99 L57,98 L58,98 L58,95 L59,95 L59,93 L60,93 L60,91 L61,91 L61,90 L62,90 L62,89 L63,89 L63,88 L64,88 L64,87 L66,87 L66,86 L68,86 L68,85 L72,85 L72,86 L74,86 L74,87 L75,87 L75,88 L76,88 L76,89 L77,89 L77,91 L78,91 L78,94 L79,94 L79,96 L80,96 L80,101 L81,101 L81,104 L82,104 L82,112 L83,112 L83,122 L84,122 L84,124 L85,124 L85,125 L86,125 L86,127 L87,127 L87,128 L88,128 L88,129 L89,129 L89,130 L92,130 L92,131 L104,131 L104,130 L107,130 L107,129 L110,129 L110,128 L112,128 L112,127 L114,127 L114,126 L117,126 L117,125 L118,125 L118,124 L120,124 L120,123 L121,123 L121,122 L123,122 L123,121 L124,121 L124,120 L125,120 L125,119 L126,119 L126,118 L128,118 L128,117 L129,117 L129,116 L130,116 L130,115 L131,115 L131,114 L132,114 L132,113 L133,113 L133,112 L135,112 L135,111 L136,111 L136,109 L137,109 L137,108 L138,108 L138,107 L139,107 L139,106 L140,106 L140,105 L141,105 L141,104 L142,104 L142,103 L143,103 L143,102 L144,102 L144,101 L145,101 L145,100 L146,100 L146,99 L147,99 L147,98 L148,98 L148,97 L149,97 L149,95 L150,95 L150,94 L151,94 L151,93 L152,93 L152,92 L153,92 L153,101 L154,101 L154,120 L153,120 L153,125 L152,125 L152,130 L151,130 L151,133 L150,133 L150,138 L149,138 L149,140 L148,140 L148,142 L147,142 L147,144 L146,144 L146,147 L145,147 L145,150 L144,150 L144,152 L143,152 L143,154 L142,154 L142,156 L141,156 L141,158 L140,158 L140,160 L139,160 L139,162 L138,162 L138,164 L137,164 L137,165 L136,165 L136,168 L135,168 L135,169 L134,169 L134,171 L133,171 L133,172 L132,172 L132,174 L131,174 L131,176 L129,176 L129,177 L128,177 L128,179 L127,179 L127,181 L126,181 L126,182 L125,182 L125,184 L124,184 L124,186 L123,186 L123,187 L122,187 L122,188 L121,188 L121,189 L120,189 L120,192 L126,192 L126,191 L128,191 L128,190 L130,190 L130,189 L132,189 L132,188 L134,188 L134,187 L136,187 L136,186 L138,186 L138,185 L140,185 L140,184 L142,184 L142,183 L144,183 L144,182 L145,182 L145,181 L146,181 L146,180 L147,180 L147,179 L149,179 L149,178 L150,178 L150,177 L151,177 L151,176 L152,176 L152,175 L153,175 L153,174 L154,174 L154,173 L155,173 L155,172 L156,172 L156,171 L157,171 L157,170 L158,170 L158,169 L159,169 L159,168 L160,168 L160,167 L161,167 L161,166 L162,166 L162,164 L163,164 L163,163 L164,163 L164,162 L165,162 L165,161 L166,161 L166,158 L167,158 L167,157 L168,157 L168,156 L169,156 L169,154 L170,154 L170,152 L171,152 L171,150 L172,150 L172,148 L173,148 L173,146 L174,146 L174,144 L175,144 L175,142 L176,142 L176,138 L177,138 L177,134 L178,134 L178,131 L179,131 L179,128 L180,128 L180,120 L181,120 L181,88 L180,88 L180,83 L179,83 L179,78 L178,78 L178,75 L177,75 L177,72 L176,72 L176,69 L175,69 L175,67 L174,67 L174,64 L173,64 L173,63 L172,63 L172,61 L171,61 L171,60 L170,60 L170,58 L169,58 L169,57 L168,57 L168,56 L167,56 L167,55 L166,55 L166,54 L164,54 L164,53 L163,53 L163,52 L160,52 L160,50 L157,50 L157,49 Z " fill="#240E4E" transform="translate(0,0)"/>
<path d="M0,0 L13,0 L13,1 L16,1 L16,3 L19,3 L19,4 L20,4 L20,5 L22,5 L22,6 L23,6 L23,7 L24,7 L24,8 L25,8 L25,9 L26,9 L26,11 L27,11 L27,12 L28,12 L28,14 L29,14 L29,15 L30,15 L30,18 L31,18 L31,20 L32,20 L32,23 L33,23 L33,26 L34,26 L34,29 L35,29 L35,34 L36,34 L36,39 L37,39 L37,71 L36,71 L36,79 L35,79 L35,82 L34,82 L34,85 L33,85 L33,89 L32,89 L32,93 L31,93 L31,95 L30,95 L30,97 L29,97 L29,99 L28,99 L28,101 L27,101 L27,103 L26,103 L26,105 L25,105 L25,107 L24,107 L24,108 L23,108 L23,109 L22,109 L22,112 L21,112 L21,113 L20,113 L20,114 L19,114 L19,115 L18,115 L18,117 L17,117 L17,118 L16,118 L16,119 L15,119 L15,120 L14,120 L14,121 L13,121 L13,122 L12,122 L12,123 L11,123 L11,124 L10,124 L10,125 L9,125 L9,126 L8,126 L8,127 L7,127 L7,128 L6,128 L6,129 L5,129 L5,130 L3,130 L3,131 L2,131 L2,132 L1,132 L1,133 L0,133 L0,134 L-2,134 L-2,135 L-4,135 L-4,136 L-6,136 L-6,137 L-8,137 L-8,138 L-10,138 L-10,139 L-12,139 L-12,140 L-14,140 L-14,141 L-16,141 L-16,142 L-18,142 L-18,143 L-24,143 L-24,140 L-23,140 L-23,139 L-22,139 L-22,138 L-21,138 L-21,137 L-20,137 L-20,135 L-19,135 L-19,133 L-18,133 L-18,132 L-17,132 L-17,130 L-16,130 L-16,128 L-15,128 L-15,127 L-13,127 L-13,125 L-12,125 L-12,123 L-11,123 L-11,122 L-10,122 L-10,120 L-9,120 L-9,119 L-8,119 L-8,116 L-7,116 L-7,115 L-6,115 L-6,113 L-5,113 L-5,111 L-4,111 L-4,109 L-3,109 L-3,107 L-2,107 L-2,105 L-1,105 L-1,103 L0,103 L0,101 L1,101 L1,98 L2,98 L2,95 L3,95 L3,93 L4,93 L4,91 L5,91 L5,89 L6,89 L6,84 L7,84 L7,81 L8,81 L8,76 L9,76 L9,71 L10,71 L10,52 L9,52 L9,43 L8,43 L8,39 L7,39 L7,36 L6,36 L6,33 L5,33 L5,31 L4,31 L4,28 L3,28 L3,27 L2,27 L2,25 L1,25 L1,24 L0,24 L0,23 L-2,23 L-2,22 L-3,22 L-3,21 L-13,21 L-13,22 L-14,22 L-14,23 L-16,23 L-16,24 L-17,24 L-17,25 L-18,25 L-18,26 L-19,26 L-19,27 L-20,27 L-20,25 L-19,25 L-19,21 L-18,21 L-18,20 L-17,20 L-17,18 L-16,18 L-16,16 L-15,16 L-15,14 L-14,14 L-14,13 L-13,13 L-13,11 L-12,11 L-12,10 L-11,10 L-11,8 L-10,8 L-10,7 L-8,7 L-8,5 L-6,5 L-6,4 L-5,4 L-5,3 L-4,3 L-4,2 L-2,2 L-2,1 L0,1 Z " fill="#9D3AEF" transform="translate(144,49)"/>
<path d="M0,0 L11,0 L11,1 L13,1 L13,2 L16,2 L16,3 L18,3 L18,4 L19,4 L19,5 L20,5 L20,6 L21,6 L21,7 L23,7 L23,9 L24,9 L24,10 L25,10 L25,11 L26,11 L26,13 L27,13 L27,15 L28,15 L28,18 L29,18 L29,20 L30,20 L30,23 L31,23 L31,37 L30,37 L30,38 L29,38 L29,39 L28,39 L28,41 L27,41 L27,42 L25,42 L25,43 L24,43 L24,44 L23,44 L23,45 L22,45 L22,46 L20,46 L20,47 L19,47 L19,48 L17,48 L17,49 L15,49 L15,50 L11,50 L11,51 L7,51 L7,50 L6,50 L6,42 L5,42 L5,34 L4,34 L4,31 L3,31 L3,26 L2,26 L2,24 L1,24 L1,21 L0,21 L0,19 L-1,19 L-1,18 L-2,18 L-2,17 L-3,17 L-3,16 L-5,16 L-5,15 L-9,15 L-9,16 L-11,16 L-11,17 L-13,17 L-13,18 L-14,18 L-14,19 L-15,19 L-15,20 L-16,20 L-16,21 L-17,21 L-17,23 L-18,23 L-18,25 L-19,25 L-19,28 L-20,28 L-20,29 L-21,29 L-21,32 L-22,32 L-22,36 L-23,36 L-23,58 L-22,58 L-22,64 L-21,64 L-21,68 L-20,68 L-20,70 L-19,70 L-19,74 L-18,74 L-18,75 L-17,75 L-17,77 L-16,77 L-16,78 L-15,78 L-15,80 L-14,80 L-14,81 L-13,81 L-13,82 L-15,82 L-15,81 L-17,81 L-17,80 L-20,80 L-20,79 L-22,79 L-22,78 L-23,78 L-23,77 L-25,77 L-25,76 L-27,76 L-27,75 L-28,75 L-28,74 L-30,74 L-30,73 L-31,73 L-31,71 L-32,71 L-32,70 L-34,70 L-34,68 L-35,68 L-35,67 L-36,67 L-36,66 L-37,66 L-37,64 L-38,64 L-38,62 L-39,62 L-39,61 L-40,61 L-40,58 L-41,58 L-41,55 L-42,55 L-42,39 L-41,39 L-41,36 L-40,36 L-40,32 L-39,32 L-39,30 L-38,30 L-38,28 L-37,28 L-37,26 L-36,26 L-36,25 L-35,25 L-35,23 L-34,23 L-34,22 L-33,22 L-33,20 L-32,20 L-32,19 L-31,19 L-31,18 L-30,18 L-30,17 L-29,17 L-29,16 L-28,16 L-28,15 L-27,15 L-27,14 L-26,14 L-26,13 L-25,13 L-25,12 L-24,12 L-24,11 L-22,11 L-22,10 L-21,10 L-21,9 L-20,9 L-20,8 L-18,8 L-18,7 L-16,7 L-16,6 L-14,6 L-14,5 L-13,5 L-13,4 L-10,4 L-10,3 L-8,3 L-8,2 L-5,2 L-5,1 L0,1 Z " fill="#23C3F9" transform="translate(77,70)"/>
<path d="M0,0 L10,0 L10,1 L11,1 L11,2 L13,2 L13,3 L14,3 L14,4 L15,4 L15,6 L16,6 L16,7 L17,7 L17,10 L18,10 L18,12 L19,12 L19,15 L20,15 L20,18 L21,18 L21,23 L20,23 L20,24 L19,24 L19,25 L18,25 L18,27 L17,27 L17,28 L16,28 L16,29 L15,29 L15,30 L14,30 L14,31 L13,31 L13,32 L12,32 L12,33 L11,33 L11,34 L10,34 L10,35 L9,35 L9,36 L8,36 L8,37 L7,37 L7,38 L6,38 L6,39 L5,39 L5,41 L4,41 L4,42 L2,42 L2,43 L1,43 L1,44 L0,44 L0,45 L-1,45 L-1,46 L-2,46 L-2,47 L-3,47 L-3,48 L-5,48 L-5,49 L-6,49 L-6,50 L-7,50 L-7,51 L-8,51 L-8,52 L-10,52 L-10,53 L-11,53 L-11,54 L-13,54 L-13,55 L-14,55 L-14,56 L-17,56 L-17,57 L-19,57 L-19,58 L-21,58 L-21,59 L-24,59 L-24,60 L-27,60 L-27,61 L-39,61 L-39,60 L-42,60 L-42,59 L-43,59 L-43,58 L-44,58 L-44,57 L-45,57 L-45,55 L-46,55 L-46,54 L-47,54 L-47,52 L-48,52 L-48,50 L-47,50 L-47,51 L-43,51 L-43,50 L-39,50 L-39,49 L-37,49 L-37,48 L-35,48 L-35,47 L-34,47 L-34,46 L-32,46 L-32,45 L-31,45 L-31,44 L-30,44 L-30,43 L-29,43 L-29,42 L-27,42 L-27,41 L-26,41 L-26,39 L-25,39 L-25,38 L-24,38 L-24,37 L-23,37 L-23,35 L-22,35 L-22,34 L-21,34 L-21,32 L-20,32 L-20,31 L-19,31 L-19,29 L-18,29 L-18,27 L-17,27 L-17,26 L-16,26 L-16,24 L-15,24 L-15,21 L-14,21 L-14,19 L-13,19 L-13,17 L-12,17 L-12,15 L-11,15 L-11,12 L-10,12 L-10,10 L-9,10 L-9,8 L-8,8 L-8,6 L-6,6 L-6,5 L-5,5 L-5,4 L-4,4 L-4,3 L-3,3 L-3,2 L-1,2 L-1,1 L0,1 Z " fill="#F859E1" transform="translate(131,70)"/>
</svg>
